<?xml version="1.0" standalone="no"?>
<!DOCTYPE svg PUBLIC "-//W3C//DTD SVG 20010904//EN"
 "http://www.w3.org/TR/2001/REC-SVG-20010904/DTD/svg10.dtd">
<svg version="1.0" xmlns="http://www.w3.org/2000/svg"
 width="163.000000pt" height="36.000000pt" viewBox="0 0 163.000000 36.000000"
 preserveAspectRatio="xMidYMid meet">
<metadata>
Created by potrace 1.15, written by Peter Selinger 2001-2017
</metadata>
<g transform="translate(0.000000,36.000000) scale(0.100000,-0.100000)"
fill="#000000" stroke="none">
<path d="M1155 342 c-70 -34 -105 -87 -105 -162 0 -75 35 -129 105 -161 66
-31 142 -19 197 30 l31 28 -36 22 -37 23 -26 -21 c-37 -29 -85 -27 -118 5 -37
38 -37 110 0 148 33 32 81 34 118 5 27 -21 28 -21 61 -3 32 17 33 20 21 39
-37 55 -143 79 -211 47z"/>
<path d="M0 180 l0 -170 99 0 c107 0 140 13 185 73 30 41 30 153 0 194 -45 60
-78 73 -185 73 l-99 0 0 -170z m179 86 c93 -48 50 -186 -59 -186 l-30 0 0 100
0 100 30 0 c17 0 43 -6 59 -14z"/>
<path d="M340 180 l0 -170 110 0 110 0 0 35 0 35 -65 0 -65 0 0 35 0 35 60 0
60 0 0 35 0 35 -60 0 -60 0 0 30 0 30 65 0 65 0 0 35 0 35 -110 0 -110 0 0
-170z"/>
<path d="M580 343 c0 -3 23 -80 52 -170 l52 -164 55 3 55 3 53 160 c28 88 52
164 52 168 1 4 -20 7 -46 5 l-47 -3 -28 -95 c-15 -52 -31 -102 -34 -110 -7
-17 -8 -15 -49 123 l-26 87 -45 0 c-24 0 -44 -3 -44 -7z"/>
<path d="M920 180 l0 -170 45 0 45 0 0 170 0 170 -45 0 -45 0 0 -170z"/>
<path d="M1410 180 l0 -170 110 0 110 0 0 35 0 35 -65 0 -65 0 0 35 0 35 60 0
60 0 0 35 0 35 -60 0 -60 0 0 30 0 30 65 0 65 0 0 35 0 35 -110 0 -110 0 0
-170z"/>
</g>
</svg>
